<svg width="374" height="202" viewBox="0 0 374 202" fill="none" xmlns="http://www.w3.org/2000/svg">
<g clip-path="url(#clip0_2_99)">
<path d="M295.694 10.8768C275.825 7.76914 260.631 8.54606 255.956 8.93452C248.944 1.55375 241.931 0.388463 236.477 0.776925C242.321 6.60385 245.827 15.15 245.048 24.0846C243.879 38.8462 231.802 51.2769 216.608 52.0538C216.219 52.0538 215.829 52.0538 215.05 52.0538C202.973 52.4422 192.454 42.7307 191.675 30.6884C191.675 30.2999 191.675 29.9115 191.675 29.9115C192.454 28.3577 194.402 27.1923 196.74 27.1923C199.467 27.5807 201.415 27.9692 202.583 29.1346C205.7 31.4653 206.09 33.7962 206.09 33.7962C208.037 31.0769 211.154 31.4654 212.323 29.9115C210.765 30.3 209.206 30.2999 207.648 30.2999C208.817 29.9114 208.817 29.5231 208.817 29.5231C208.427 29.5231 207.258 29.9115 206.09 29.5231C205.31 29.5231 204.921 28.7461 204.531 28.7461C203.752 27.9692 201.804 26.0269 197.129 25.6384C201.415 23.6961 210.375 26.8038 210.375 26.8038C210.375 27.5807 208.427 27.9692 208.427 27.9692C209.985 28.3577 211.933 27.5807 211.933 27.5807C212.323 28.3577 210.765 29.5231 210.765 29.5231C216.608 29.1346 218.556 25.25 218.556 25.25C215.829 25.25 210.375 22.5307 208.427 20.9769C205.7 19.0345 204.921 18.2577 204.921 15.9269C199.856 15.15 189.337 6.21534 193.623 1.94226C193.623 1.94226 187.779 5.82683 192.844 10.8768C192.454 10.4884 186.61 5.43839 177.26 11.2653C177.26 11.2653 181.935 9.32305 188.558 12.0423C188.558 12.0423 177.65 9.71144 173.754 16.7038C173.754 16.7038 181.156 13.5962 184.662 16.3154C184.662 16.3154 173.754 13.9845 171.806 22.5307L172.196 22.1423C174.144 20.2 177.65 19.4231 180.377 20.2C181.156 20.5885 181.546 20.5884 181.935 20.9769C173.365 19.0345 169.079 28.3576 169.079 28.3576L170.638 27.1923C173.365 25.25 176.481 24.8615 179.598 26.0269C166.742 26.0269 171.806 37.6808 171.806 37.6808C171.806 37.6808 173.365 31.0768 176.871 30.2999C176.871 31.8538 176.871 32.6307 177.65 35.35C177.65 35.7384 177.65 35.7384 177.65 36.1268C178.429 44.2845 172.196 51.6653 164.015 52.0538C162.846 52.0538 161.677 52.0538 160.898 52.0538C144.146 51.6653 130.51 37.6807 130.51 21.3653C130.51 13.2076 134.017 5.82692 139.081 0.776925C134.017 0.388463 126.615 1.55375 119.602 8.93452C114.927 8.54606 100.123 8.1576 79.8646 10.8768C59.6063 13.9845 29.9979 21.7538 2.33752 40.3999C4.28544 40.0115 6.23336 40.0114 8.18127 40.0114C24.1542 40.0114 37.4 50.8884 40.5166 65.6499C43.6333 64.4845 46.75 64.0961 49.8667 64.0961C63.5021 64.0961 75.1896 73.4192 78.3063 85.85C82.2021 78.8577 89.2146 74.1961 97.7854 74.1961C106.746 74.1961 114.538 79.2461 118.044 87.0153C126.225 78.8576 137.913 74.1961 150.379 74.1961C158.56 74.1961 166.352 76.5269 172.975 80.0231C172.585 80.4115 172.196 80.8 172.196 81.5769C171.027 83.9076 170.638 86.2385 170.638 88.1808C171.027 90.1231 170.638 92.0654 169.858 93.6192C169.469 94.0077 169.469 94.3961 169.079 94.3961C168.3 95.173 161.287 97.8923 162.456 103.331C162.456 103.331 164.794 99.4462 166.352 99.8346C164.794 101.388 164.404 103.719 166.742 107.215C166.742 107.215 167.131 102.165 169.079 101C169.079 101 170.638 101.388 171.806 105.273C171.806 104.496 172.975 101.777 171.806 98.2807C171.806 98.2807 172.585 97.1154 173.365 95.5615C174.144 94.0077 175.312 92.8423 176.871 92.0654C176.871 97.1154 177.26 101.777 176.871 106.827C176.481 128.969 175.702 154.219 162.846 185.296C162.846 185.296 166.742 167.038 166.352 166.65C163.235 164.708 160.508 162.377 158.95 160.046C160.898 170.146 161.288 180.246 159.729 189.958C159.34 193.065 158.56 196.561 157.392 199.669C158.95 196.95 160.898 194.231 162.846 191.511C168.69 183.742 176.092 177.138 185.052 171.7C181.546 172.477 177.65 171.7 173.365 170.535C186.221 151.888 195.181 123.919 197.129 92.0654C198.688 92.8423 200.246 94.0077 201.025 95.5615C201.804 97.5038 202.583 98.2807 202.583 98.2807C201.415 101.777 202.583 104.885 202.583 105.273C203.752 101.388 205.31 101 205.31 101C207.258 102.165 207.648 107.215 207.648 107.215C209.985 103.719 209.206 101 208.037 99.8346C209.596 99.0577 211.933 103.331 211.933 103.331C213.102 97.8923 206.479 95.173 205.31 94.3961C204.921 94.3961 204.921 94.0077 204.531 93.6192C203.363 92.0654 203.363 90.1231 203.752 88.1808C204.142 86.2385 203.362 83.9076 202.194 81.5769C201.804 80.8 201.415 80.4115 201.025 79.6346C207.648 76.1384 215.05 74.1961 223.231 74.1961C235.698 74.1961 246.996 79.2461 255.567 87.0153C259.073 79.2461 266.865 74.1961 275.825 74.1961C284.396 74.1961 291.408 78.8577 295.304 85.85C298.421 73.4192 310.108 64.0961 323.744 64.0961C327.25 64.0961 330.367 64.4845 333.094 65.6499C336.21 50.8884 349.456 40.0114 365.429 40.0114C367.377 40.0114 369.325 40.3999 371.273 40.3999C345.56 21.7538 315.952 13.9845 295.694 10.8768ZM201.025 17.4807C201.415 18.2576 202.583 19.0345 203.752 19.0345L204.142 19.8115L202.973 20.2C202.194 20.2 201.804 20.2 201.415 19.8115C200.635 18.6461 200.635 17.0923 201.025 17.4807Z" fill="#9F6718" fill-opacity="0.63"/>
<path d="M72.0242 149.89C66.7161 149.89 62.6255 148.133 59.7523 144.62C56.9279 141.107 55.5156 135.691 55.5156 128.372C55.5156 125.299 55.7348 122.469 56.173 119.883C56.6113 117.248 57.1714 115.052 57.8531 113.296C58.8271 112.076 60.3367 110.71 62.382 109.197C64.476 107.685 66.5701 106.416 68.6641 105.391C70.7581 104.318 72.2677 103.781 73.193 103.781C73.8747 103.781 75.6522 103.928 78.5254 104.22C81.3986 104.513 84.0526 104.806 86.4875 105.099L85.6109 119.59H80.2055L79.1828 111.1C78.1115 110.807 76.7966 110.563 75.2383 110.368C73.7286 110.124 72.5355 110.002 71.659 110.002C70.7824 110.002 70.125 110.124 69.6867 110.368C68.8589 110.856 68.1771 112.564 67.6414 115.491C67.1544 118.419 66.9109 122.054 66.9109 126.396C66.9109 132.495 67.6171 136.765 69.0293 139.204C70.4902 141.595 72.6329 142.791 75.4574 142.791H79.2559L80.5707 133.715H85.8301L86.1223 148.06C84.6126 148.402 82.056 148.792 78.4523 149.231C74.8974 149.67 72.7547 149.89 72.0242 149.89Z" fill="white"/>
<path d="M95.5099 149.89C95.2177 149.89 94.609 149.5 93.6838 148.719C92.7585 147.889 92.2959 147.328 92.2959 147.036V107.587L89.374 106.489V102.464C95.5586 101.488 98.9918 101 99.6736 101C99.9171 101 100.428 101.415 101.208 102.244C101.987 103.025 102.376 103.562 102.376 103.854L101.865 119.443L102.376 119.517C103.691 118.492 105.079 117.467 106.54 116.443C108.001 115.418 108.853 114.906 109.097 114.906C112.846 114.906 115.647 115.735 117.497 117.394C119.348 119.053 120.273 121.956 120.273 126.104V143.23L123.195 144.328V148.353C117.254 149.378 114.015 149.89 113.479 149.89C113.187 149.89 112.554 149.5 111.58 148.719C110.655 147.889 110.192 147.328 110.192 147.036V126.177C110.192 123.444 109.194 122.078 107.197 122.078C106.954 122.078 106.272 122.322 105.152 122.81C104.081 123.249 103.156 123.664 102.376 124.054V143.23L105.298 144.328V148.353C99.4058 149.378 96.143 149.89 95.5099 149.89Z" fill="white"/>
<path d="M139.056 149.89C135.258 149.89 132.238 148.499 129.998 145.718C127.758 142.888 126.638 138.96 126.638 133.935C126.638 131.788 126.809 129.665 127.15 127.567C127.539 125.469 127.977 123.835 128.464 122.664C129.39 121.493 131.484 119.907 134.746 117.907C138.009 115.857 140.152 114.833 141.175 114.833C141.661 114.833 143.755 115.125 147.457 115.711C151.206 116.296 153.909 116.711 155.565 116.955V143.303L158.487 144.401V148.426C152.545 149.402 149.258 149.89 148.625 149.89C148.382 149.89 147.846 149.5 147.018 148.719C146.239 147.889 145.85 147.353 145.85 147.109V144.986C141.71 148.255 139.446 149.89 139.056 149.89ZM140.809 142.717C141.101 142.717 142.66 142.01 145.484 140.595V122.005C144.51 121.468 143.463 120.98 142.343 120.541C141.223 120.053 140.371 119.809 139.787 119.809C139.007 119.809 138.399 120.858 137.96 122.957C137.571 125.055 137.376 128.446 137.376 133.13C137.376 135.911 137.717 138.204 138.399 140.009C139.129 141.815 139.933 142.717 140.809 142.717Z" fill="white"/>
<path d="M170.789 149.89C170.254 149.89 169.499 149.475 168.525 148.646C167.6 147.816 166.772 146.889 166.041 145.864C165.311 144.791 164.946 143.913 164.946 143.23V120.98H159.832V117.248L164.946 115.199L171.301 107.733C171.739 107.587 172.981 107.953 175.026 108.831V115.711H182.404V121.2H175.026V140.156C175.026 141.278 175.148 142.059 175.391 142.498C175.683 142.937 176.122 143.157 176.706 143.157L183.134 143.522V148.499C180.797 148.841 178.289 149.158 175.61 149.451C172.981 149.743 171.374 149.89 170.789 149.89Z" fill="white"/>
<path d="M197.903 144.913L202.359 143.23V110.441L197.903 108.758V104.586H222.009C224.687 104.586 227.171 105.269 229.46 106.636C231.797 108.002 233.696 110.271 235.157 113.442C236.667 116.565 237.422 120.639 237.422 125.664C237.422 133.618 236.083 139.521 233.404 143.376C230.726 147.182 226.927 149.085 222.009 149.085H197.903V144.913ZM220.402 143.815C222.204 143.815 223.616 142.254 224.639 139.131C225.661 136.008 226.173 131.715 226.173 126.25C226.173 121.615 225.637 117.711 224.566 114.54C223.543 111.368 222.155 109.783 220.402 109.783L213.243 110.514V143.01L220.402 143.815Z" fill="white"/>
<path d="M247.041 149.89C246.748 149.89 246.115 149.5 245.141 148.719C244.216 147.889 243.753 147.328 243.753 147.036V121.42L240.832 120.322V116.296C246.821 115.369 250.157 114.906 250.839 114.906C251.082 114.906 251.569 115.321 252.3 116.15C253.079 116.931 253.469 117.443 253.469 117.687V119.663C254.735 118.687 256.171 117.663 257.778 116.589C259.385 115.467 260.311 114.906 260.554 114.906C264.255 114.906 267.031 115.76 268.882 117.467C270.781 119.126 271.73 122.005 271.73 126.104V143.23L274.652 144.328V148.353C268.711 149.378 265.473 149.89 264.937 149.89C264.645 149.89 264.012 149.5 263.038 148.719C262.113 147.889 261.65 147.328 261.65 147.036V126.177C261.65 123.444 260.652 122.078 258.655 122.078C258.265 122.078 256.658 122.737 253.834 124.054V143.23L256.756 144.328V148.353C250.863 149.378 247.625 149.89 247.041 149.89Z" fill="white"/>
<path d="M278.155 144.913L282.611 143.23V110.441L278.155 108.758V104.586H302.261C304.939 104.586 307.423 105.269 309.711 106.636C312.049 108.002 313.948 110.271 315.409 113.442C316.919 116.565 317.673 120.639 317.673 125.664C317.673 133.618 316.334 139.521 313.656 143.376C310.977 147.182 307.179 149.085 302.261 149.085H278.155V144.913ZM300.654 143.815C302.455 143.815 303.868 142.254 304.89 139.131C305.913 136.008 306.424 131.715 306.424 126.25C306.424 121.615 305.889 117.711 304.817 114.54C303.795 111.368 302.407 109.783 300.654 109.783L293.495 110.514V143.01L300.654 143.815Z" fill="white"/>
</g>
<defs>
<clipPath id="clip0_2_99">
<rect width="374" height="202" fill="white"/>
</clipPath>
</defs>
</svg>
