<svg width="24" height="24" viewBox="0 0 24 24" fill="none" xmlns="http://www.w3.org/2000/svg">
<mask id="mask0_53_231" style="mask-type:alpha" maskUnits="userSpaceOnUse" x="0" y="0" width="24" height="24">
<rect width="24" height="24" fill="white"/>
</mask>
<g mask="url(#mask0_53_231)">
<g filter="url(#filter0_d_53_231)">
<path d="M12.0455 21.1469C11.0445 21.1469 10.0435 20.8541 9.22447 20.171C5.85745 17.4383 2.76343 14.7055 2.76343 10.1185C2.76343 6.4098 5.12944 4.75066 7.40446 4.75066C9.13347 4.75066 10.8625 5.72663 11.9545 7.38577C13.2285 5.62903 14.9575 4.65306 16.6865 4.65306C18.9615 4.65306 21.2366 6.31221 21.2366 10.1185C21.2366 14.8031 18.4155 17.3407 14.7755 20.171C13.9565 20.8541 12.9555 21.1469 12.0455 21.1469Z" fill="url(#paint0_radial_53_231)"/>
<path d="M12.0455 21.1469C11.0445 21.1469 10.0435 20.8541 9.22447 20.171C5.85745 17.4383 2.76343 14.7055 2.76343 10.1185C2.76343 6.4098 5.12944 4.75066 7.40446 4.75066C9.13347 4.75066 10.8625 5.72663 11.9545 7.38577C13.2285 5.62903 14.9575 4.65306 16.6865 4.65306C18.9615 4.65306 21.2366 6.31221 21.2366 10.1185C21.2366 14.8031 18.4155 17.3407 14.7755 20.171C13.9565 20.8541 12.9555 21.1469 12.0455 21.1469Z" fill="url(#paint1_radial_53_231)"/>
<path d="M12.0455 21.1469C11.0445 21.1469 10.0435 20.8541 9.22447 20.171C5.85745 17.4383 2.76343 14.7055 2.76343 10.1185C2.76343 6.4098 5.12944 4.75066 7.40446 4.75066C9.13347 4.75066 10.8625 5.72663 11.9545 7.38577C13.2285 5.62903 14.9575 4.65306 16.6865 4.65306C18.9615 4.65306 21.2366 6.31221 21.2366 10.1185C21.2366 14.8031 18.4155 17.3407 14.7755 20.171C13.9565 20.8541 12.9555 21.1469 12.0455 21.1469Z" fill="url(#paint2_radial_53_231)"/>
</g>
</g>
<defs>
<filter id="filter0_d_53_231" x="-1.23657" y="0.653061" width="26.4731" height="24.4939" filterUnits="userSpaceOnUse" color-interpolation-filters="sRGB">
<feFlood flood-opacity="0" result="BackgroundImageFix"/>
<feColorMatrix in="SourceAlpha" type="matrix" values="0 0 0 0 0 0 0 0 0 0 0 0 0 0 0 0 0 0 127 0" result="hardAlpha"/>
<feOffset/>
<feGaussianBlur stdDeviation="2"/>
<feColorMatrix type="matrix" values="0 0 0 0 0.972549 0 0 0 0 0.219608 0 0 0 0 0.47451 0 0 0 0.3 0"/>
<feBlend mode="normal" in2="BackgroundImageFix" result="effect1_dropShadow_53_231"/>
<feBlend mode="normal" in="SourceGraphic" in2="effect1_dropShadow_53_231" result="shape"/>
</filter>
<radialGradient id="paint0_radial_53_231" cx="0" cy="0" r="1" gradientUnits="userSpaceOnUse" gradientTransform="translate(12 26.6449) rotate(-104.581) scale(19.5676 19.888)">
<stop stop-color="#FF0758"/>
<stop offset="1" stop-color="#F7558F"/>
</radialGradient>
<radialGradient id="paint1_radial_53_231" cx="0" cy="0" r="1" gradientUnits="userSpaceOnUse" gradientTransform="translate(5.84228 7.70748) rotate(66.2025) scale(10.6824 8.81241)">
<stop stop-color="#F6A3C7"/>
<stop offset="1" stop-color="#EB2E6A" stop-opacity="0"/>
</radialGradient>
<radialGradient id="paint2_radial_53_231" cx="0" cy="0" r="1" gradientUnits="userSpaceOnUse" gradientTransform="translate(15.6946 8.01292) rotate(104.371) scale(11.7846 12.6)">
<stop stop-color="#F6A3C7"/>
<stop offset="1" stop-color="#EB2E6A" stop-opacity="0"/>
</radialGradient>
</defs>
</svg>
