<?xml version="1.0" standalone="no"?>
<!DOCTYPE svg PUBLIC "-//W3C//DTD SVG 20010904//EN"
 "http://www.w3.org/TR/2001/REC-SVG-20010904/DTD/svg10.dtd">
<svg version="1.0" xmlns="http://www.w3.org/2000/svg"
 width="190.000000pt" height="190.000000pt" viewBox="0 0 190.000000 190.000000"
 preserveAspectRatio="xMidYMid meet">
<metadata>
Created by potrace 1.14, written by Peter Selinger 2001-2017
</metadata>
<g transform="translate(0.000000,190.000000) scale(0.100000,-0.100000)"
fill="#000000" stroke="none">
<path d="M1759 1854 c-12 -157 -47 -213 -196 -315 -40 -27 -90 -64 -110 -82
l-38 -32 20 30 c40 63 102 215 86 215 -3 0 -28 -39 -56 -85 -27 -47 -59 -97
-72 -113 l-22 -27 -1 27 c0 15 -5 38 -12 52 -11 25 -12 25 -34 -30 -65 -160
-204 -298 -370 -367 -97 -40 -125 -45 -276 -52 -120 -5 -133 2 -79 47 40 34
142 62 251 68 14 0 -8 10 -48 20 -87 23 -121 39 -136 63 -9 15 -5 23 21 47 55
49 165 73 368 80 l50 1 -52 14 c-91 25 -163 72 -163 106 0 17 55 71 84 83 48
20 155 38 240 39 42 1 76 5 76 8 0 10 -65 34 -145 54 -74 19 -257 25 -330 12
-219 -41 -407 -150 -542 -317 -115 -143 -183 -338 -183 -527 0 -94 21 -238 39
-271 5 -8 24 11 56 55 96 131 202 224 285 251 129 43 330 28 322 -23 -5 -32
-24 -75 -33 -75 -5 0 -9 11 -9 24 0 42 -16 38 -30 -7 -11 -38 -47 -117 -53
-117 -1 0 -2 30 -3 68 0 40 -6 78 -15 96 -16 28 -16 28 -22 -47 -5 -77 -22
-127 -44 -135 -8 -2 -13 6 -13 22 0 26 -53 96 -73 96 -7 0 -7 -4 1 -12 35 -35
-7 -182 -65 -228 -15 -11 -23 -23 -20 -26 19 -19 -58 -101 -142 -152 l-33 -20
25 -17 c14 -9 40 -19 58 -22 26 -4 31 -2 26 11 -4 10 -1 16 8 16 8 0 15 5 15
11 0 16 26 36 85 64 53 26 72 30 93 16 18 -11 -9 -105 -41 -139 -12 -14 -15
-22 -7 -18 8 4 5 -1 -7 -12 l-22 -19 37 -12 c20 -7 42 -14 48 -17 7 -3 19 14
28 38 39 101 197 210 319 220 34 3 35 15 2 30 -14 6 -25 15 -25 20 0 12 88 10
112 -3 11 -6 22 -9 24 -6 7 7 -41 57 -53 57 -6 0 -16 6 -22 14 -13 15 0 33 46
63 21 14 26 14 33 3 9 -14 25 -102 23 -130 -8 -189 -61 -283 -246 -437 l-80
-68 34 -7 c312 -68 618 24 831 251 198 211 278 513 209 789 -19 76 -69 208
-71 187 -1 -5 -3 -55 -5 -110 -8 -210 -56 -316 -132 -290 -21 8 -37 28 -64 83
-20 40 -38 74 -40 76 -2 3 -4 -35 -3 -83 2 -165 -30 -296 -78 -322 -34 -18
-70 32 -98 134 -15 55 -22 54 -26 -5 -8 -117 -32 -198 -68 -227 -30 -25 -40 1
-38 106 3 208 91 412 243 564 34 34 130 102 191 135 62 33 62 35 8 36 -3 1
-20 -2 -39 -6 -30 -5 -32 -4 -20 11 8 9 57 45 109 80 90 61 93 65 55 58 -46
-8 -123 -39 -180 -73 l-40 -23 37 33 c20 18 59 51 86 73 56 45 124 140 142
198 12 38 16 145 5 155 -3 3 -5 1 -6 -4z m-1269 -1323 c0 -10 -7 -22 -16 -25
-25 -10 -28 0 -7 22 23 26 23 26 23 3z"/>
</g>
</svg>
